<svg xmlns="http://www.w3.org/2000/svg" width="110.961" height="40.763" viewBox="0 0 110.961 40.763">
  <path d="M38.844 23.324c.12-.004.788.038.797-.38 0-.03-.007-.113-.083-.19-.077-.085-.26-.23-.402-.323-1.31-.86-2.115-3.3-2.328-7.06-.205-3.683.634-8.835.634-8.835.033-.15.43-1.806.117-1.99-.416-.222-.44-.358-1.426-.443-.145-.01-1.067.234-1.12.346-.887 1.55-1.878 5.16-2.833 8.647-.585 2.132-1.142 4.147-1.66 5.686-.78 2.317-1.15 2.468-1.218 2.477 0 0-.317-.005-.605-1.567-.18-.967-.32-2.366-.433-4.275-.084-1.573-.14-3.3-.193-4.97-.052-1.595-.097-3.1-.173-4.418-.033-.606-.826-.862-1.59-.868-1.3-.013-1.333.706-1.333.706-.004.19-.81 4.948-2.513 9.797-2.145 6.1-4.32 8.244-6.96 8.41-4.572.286-5.978-4.125-5.875-2.32.166 2.918 2.557 5.115 5.44 5.005 6.648-.258 8.974-11.576 9.964-16.405l.037-.18c.027.957.073 1.92.126 2.917.407 7.104 1.512 10.522 3.397 10.448.64-.027 1.262-.582 1.75-1.57 1.05-2.098 2.134-6.02 2.847-8.62.15-.543.288-1.034.406-1.443-.024.85-.033 1.728.02 2.638.095 1.713.375 3.29.868 4.957.82 2.772 3.44 3.86 4.344 3.824z"/>
  <path d="M38.415 10.67c.483.226.38.892.327 1.544-.436 5.198.627 9.166 2.884 9.166 1.167 0 2.188-.958 2.817-1.748-.02.165-.04.337-.066.518-.327 2.598-.872 4.417-3.16 5.943-.728.46-1.563.693-2.414.668-1.62-.045-3.108-.838-3.752-2.225-.105-.346-.24-.495-.388-.524-.705-.137-.566.867-.566.867.534 2.22 2.924 3.28 5.055 3.345 1.223.033 2.427-.257 3.304-.806 3.388-2.15 4.41-5.69 4.625-10.05.122-2.162.256-3.328.493-4.422.015-.062.113-.352.6-.213 1.206.346 2.866.756 3.368.893-.11 2.617-.273 5-.493 7.108l-.002.022c-.01.374 1.01 2.15 1.89 2.177.157.003.296-.046.426-.146l.07-.07.007-.094c.1-3.408.23-6.19.398-8.485.914.164 1.89.263 2.893.294 6.88.195 10.06-3.143 10.16-6.543C66.994 4.213 63.474.2 56.732.007c-6.34-.185-11.363 3.183-11.452 6.2-.03 1.02.54 3.412 6.397 3.82-.034 1.138-.06 1.852-.093 2.528-.492-.095-4.17-.975-5.194-1.38-1.302-.516-1.298.55-1.308.727-.047 1.747-.204 2.9-.502 5.137-.244 1.83-1.853 2.93-2.365 2.95-.913.044-1.27-2.04-.746-6.107.388-3.017.608-4.375-.47-4.43 0 0-1.532.01-2.582 1.218zm17.41 2.376c-.44-.015-1.12-.052-1.914-.148.058-.8.128-1.524.183-2.17.02-.256.047-.504.068-.746.496-.05 1.168-.213 1.655-.384.485-.172.755-.23 1.022-.373.273-.143.332-.505-.008-.45-.343.054-1.222.276-1.222.276s-.576.13-1.367.182c.21-1.936.415-3.162.536-3.908.077-.48.127-.77.134-.965.002-.22-.255-.33-.446-.335-.08.002-1.914.038-2.195.056-.258.033-.423.207-.436.473-.032.163-.043.467-.058 1.01-.01.362-.016.81-.03 1.325-.01.654-.024 1.385-.05 2.197-2.535-.38-4.068-1.47-4.03-2.88.06-2.052 3.405-4.082 8.893-3.925 4.43.127 6.732 3.11 6.65 5.85-.07 2.362-2.042 5.067-7.386 4.916z"/>
  <path d="M91.407 16.873c-.192-.01-.354.102-.398.138l-.04.026-.02.037c-1.23 2.1-3.5 5.66-8.162 5.597-1.245-.015-2.013-.966-2.348-2.756C83.238 15.6 84.68 9.32 84.82 6.902c.186-3.082-.83-3.786-1.72-3.834-2.304-.123-4.187 7.54-4.526 13.09-.085 1.37-.125 2.956.208 4.386-1.03 1.25-2.585 2.14-3.65 2.084-1.334-.073-1.757-1.11-1.827-2.36 2.893-1.49 4.114-3.217 4.216-4.862.087-1.376-.682-2.348-1.908-2.413-2.48-.13-4.572 2.113-4.432 6.828 0 0-1.77 1.46-2.75 1.408-.106-.005-.682-.178-1.182-2.952 1.824-2.114 3.452-3.675 4.067-4.264.37-.35 3.395-3.25 3.402-3.342 0-.02.018-.082.03-.13.03-.11.072-.244.08-.374.027-.47-.348-.526-.462-.533-.202-.013-3.377 2.996-3.405 3.015l-.01.008-.008.01c-1.688 1.643-3.01 3.015-3.936 3.995-.13-.97-.14-1.205-.21-2.095-.033-.518-.46-.876-1.09-.91-.66-.035-1.41.286-2.02.852l-.164.153.158.157c.28.278.92 3.455 1.11 4.238-2.378 2.358-3.354 2.304-3.77 2.284H61c-.208-.016-.39-.124-.347-.855.12-1.927.226-2.053.478-3.118.106-.433.24-.893.378-1.402l.006-.02v-.022c.008-.165-.13-.422-.545-.442l-.026-.003-.03.006c-.667.092-1.082.097-1.538.073-.296-.016-.503.22-.586.43l-.002.017c-.193.875-.347 1.106-.46 2.926-.19 3.174.94 3.904 1.92 3.957 1.21.065 2.522-.35 4.907-2.536.63 1.855 1.518 3.02 2.663 2.852.938-.138 3.025-1.282 3.81-1.98.738 2.005 1.975 2.452 3.016 2.508 1.515.08 3.205-.718 4.5-2.1.808 1.872 2.402 2.885 4.75 3.01 4.24.23 7.63-2.604 7.98-6.43.105-1.167-.35-1.332-.467-1.337zM80.29 16.55c.287-4.688 2.034-10.022 2.59-10.718.098.112.256.52.187 1.69-.123 1.972-.965 6.95-2.806 10.664-.012-.498-.004-1.04.03-1.636zm-4.866-1.765c.197.01.32.328.296.758-.055.873-.766 2.672-2.354 3.257.255-1.987 1.22-4.06 2.058-4.015z"/>
  <g>
    <path fill="#8A8C8E" d="M2.494 37.944c-.096.348-.407.612-.79.612-.36 0-.757-.216-.805-.528l-.9-5.12c.023-.193.19-.35.396-.35.216 0 .36.193.384.397l.863 4.93 1.176-3.37c.095-.29.335-.517.683-.517s.588.228.684.516l1.176 3.37.863-4.93c.023-.203.168-.395.384-.395.204 0 .372.155.396.347l-.9 5.12c-.047.313-.442.53-.803.53-.384 0-.695-.265-.79-.613l-1.01-2.89-1.01 2.89zM9.767 38.616c-1.235 0-2.1-.444-2.1-1.787v-.997c0-1.535.35-2.135 1.956-2.135 1.667 0 1.906.636 1.906 1.895v.504c0 .216-.18.384-.397.384H8.447v.42c0 .768.575 1.02 1.308 1.02.36 0 .983-.024 1.38-.12.155.036.25.192.25.348 0 .192-.12.336-.323.36-.42.072-.96.108-1.295.108zm-1.32-2.83h2.303v-.42c0-.576-.132-.97-1.127-.97-.744 0-1.14.07-1.176 1.39zM12.792 32.512c0-.216.168-.384.384-.384s.396.167.396.384v1.62h.108c.287-.433.983-.433 1.15-.433 1.823 0 1.823.85 1.823 1.93v1.055c0 1.08-.048 1.93-1.93 1.93-.397 0-.816-.07-1.152-.43 0 .215-.18.37-.395.37s-.384-.167-.384-.383v-5.66zm3.082 3.13c0-.54 0-1.247-1.02-1.247-1.007 0-1.283.54-1.283 1.043v1.235c0 .54 0 1.247 1.152 1.247s1.15-.708 1.15-1.247v-1.03zM20.136 32.943c0-.216.18-.384.396-.384h1.63c1.536 0 2.556.55 2.556 2.218v1.56c0 1.666-1.02 2.218-2.555 2.218h-1.63c-.217 0-.397-.168-.397-.384v-5.23zm.78.312v4.605h1.27c.9 0 1.75-.48 1.75-1.44v-1.726c0-.96-.85-1.44-1.75-1.44h-1.27zM27.898 38.616c-1.235 0-2.1-.444-2.1-1.787v-.997c0-1.535.35-2.135 1.955-2.135 1.668 0 1.907.636 1.907 1.895v.504c0 .216-.18.384-.396.384h-2.687v.42c0 .768.575 1.02 1.308 1.02.36 0 .983-.024 1.38-.12.155.036.25.192.25.348 0 .192-.12.336-.323.36-.42.072-.958.108-1.294.108zm-1.32-2.83h2.304v-.42c0-.576-.132-.97-1.128-.97-.743 0-1.14.07-1.175 1.39zM30.743 38.1c0-.19.144-.37.36-.37.395.12 1.02.19 1.343.19.84 0 .995-.24.995-.743 0-.936-2.817-.563-2.817-2.16 0-.995.72-1.318 1.847-1.318.36 0 .876.035 1.27.12.157.035.253.18.253.335 0 .192-.132.348-.324.348-.3-.06-.78-.108-1.176-.108-.852 0-1.092.192-1.092.624 0 .97 2.818.515 2.818 2.158 0 1.056-.48 1.44-1.774 1.44-.384 0-.936-.05-1.355-.145-.24-.05-.347-.193-.347-.372zM35.423 32.44c0-.217.168-.385.384-.385s.396.168.396.384v.24c0 .215-.18.383-.396.383s-.384-.167-.384-.384v-.24zm0 1.703c0-.216.168-.384.384-.384s.396.167.396.383v4.03c0 .216-.18.384-.396.384s-.384-.168-.384-.384v-4.03zM37.703 40.307c0-.192.156-.348.348-.348.385.083.9.107 1.236.107.732 0 1.26-.252 1.26-1.02v-.863c-.336.36-.756.432-1.15.432-1.884 0-1.932-.852-1.932-1.93V35.63c0-1.08 0-1.93 1.822-1.93.168 0 .864 0 1.15.43h.11c0-.215.167-.37.383-.37s.395.167.395.383v4.833c0 1.343-.815 1.787-2.05 1.787-.324 0-.816-.036-1.225-.108-.19-.024-.347-.168-.347-.348zm2.843-4.87c0-.503-.276-1.042-1.283-1.042-1.02 0-1.02.708-1.02 1.247v1.032c0 .54 0 1.247 1.15 1.247s1.152-.707 1.152-1.246v-1.236zM43.666 34.13c.336-.432.863-.432 1.343-.432 1.175 0 1.63.78 1.63 1.823v2.65c0 .217-.18.385-.395.385-.216 0-.384-.168-.384-.384v-2.434c0-.648 0-1.343-1.09-1.343-.924 0-1.224.312-1.224 1.007v2.77c0 .217-.18.385-.396.385s-.384-.168-.384-.384v-4.03c0-.215.168-.383.384-.383s.396.156.396.372h.12zM54.812 37.896c.06.06.097.156.097.24 0 .18-.157.336-.337.336-.084 0-.18-.036-.24-.096l-.228-.228c-.516.372-1.15.468-1.655.468-1.163 0-2.267 0-2.267-1.655 0-.838.684-1.187 1.415-1.474-.252-.42-.408-.864-.408-1.32 0-.97.23-1.666 1.452-1.666 1.223 0 1.45.696 1.45 1.667 0 .852-.707 1.27-1.463 1.607.275.336.587.636 1.38 1.38.13-.24.227-.553.263-.948 0-.216.168-.384.384-.384s.396.168.396.384c-.048.647-.228 1.115-.468 1.475l.227.216zm-1.248-.25c-.54-.493-1.127-1.032-1.57-1.596-.576.252-1.032.492-1.032.912 0 .96.432.96 1.476.96.383-.002.79-.062 1.126-.277zm-1.306-2.412c.587-.228 1.055-.503 1.055-1.067 0-.66 0-.97-.67-.97-.66 0-.673.31-.673.97 0 .383.107.73.288 1.067z"/>
    <path fill="#00AEEF" d="M58.715 32.943c0-.216.18-.384.396-.384h1.632c1.535 0 2.555.55 2.555 2.218v1.56c0 1.666-1.02 2.218-2.555 2.218H59.11c-.216 0-.396-.168-.396-.384v-5.23zm.78.312v4.605h1.27c.9 0 1.75-.48 1.75-1.44v-1.726c0-.96-.85-1.44-1.75-1.44h-1.27zM66.478 38.616c-1.235 0-2.1-.444-2.1-1.787v-.997c0-1.535.35-2.135 1.956-2.135 1.667 0 1.906.636 1.906 1.895v.504c0 .216-.18.384-.396.384h-2.687v.42c0 .768.575 1.02 1.308 1.02.36 0 .983-.024 1.38-.12.155.036.25.192.25.348 0 .192-.12.336-.323.36-.42.072-.96.108-1.294.108zm-1.32-2.83h2.303v-.42c0-.576-.13-.97-1.126-.97-.744 0-1.14.07-1.176 1.39zM68.903 34.143c0-.216.19-.384.407-.384.168 0 .313.107.372.263l1.355 3.922 1.355-3.922c.06-.156.203-.264.37-.264.217 0 .41.167.41.383l-1.356 3.862c-.107.312-.432.552-.79.552-.35 0-.66-.228-.77-.552l-1.353-3.862zM75.934 38.616c-1.235 0-2.1-.444-2.1-1.787v-.997c0-1.535.35-2.135 1.955-2.135 1.667 0 1.906.636 1.906 1.895v.504c0 .216-.18.384-.396.384h-2.687v.42c0 .768.575 1.02 1.308 1.02.36 0 .984-.024 1.38-.12.156.036.252.192.252.348 0 .192-.12.336-.324.36-.42.072-.958.108-1.294.108zm-1.32-2.83h2.303v-.42c0-.576-.132-.97-1.128-.97-.744 0-1.14.07-1.176 1.39zM78.958 32.512c0-.216.168-.384.384-.384s.396.167.396.384v5.66c0 .217-.18.385-.396.385s-.384-.168-.384-.384v-5.66zM84.86 35.63v1.055c0 1.08-.048 1.93-1.93 1.93s-1.932-.85-1.932-1.93V35.63c0-1.08.048-1.93 1.93-1.93s1.932.85 1.932 1.93zm-.78.012c0-.54 0-1.247-1.15-1.247s-1.15.708-1.15 1.247v1.032c0 .54 0 1.247 1.15 1.247s1.15-.707 1.15-1.246v-1.032zM89.983 35.63v1.055c0 1.08-.048 1.93-1.93 1.93-.397 0-.816-.07-1.152-.43v2.193c0 .216-.18.384-.395.384s-.384-.167-.384-.384v-6.236c0-.216.17-.384.385-.384s.396.168.396.372h.11c.286-.432.982-.432 1.15-.432 1.823 0 1.823.852 1.823 1.932zm-.78.012c0-.54 0-1.247-1.02-1.247-1.006 0-1.282.54-1.282 1.043v1.235c0 .54 0 1.247 1.152 1.247s1.15-.708 1.15-1.247v-1.03zM91.246 34.143c0-.216.168-.384.384-.384s.396.155.396.37h.12c.336-.43.815-.43.972-.43.527 0 1.007.155 1.223.43.337-.43 1.152-.43 1.31-.43 1.175 0 1.486.78 1.486 1.822v2.65c0 .216-.18.384-.396.384s-.384-.168-.384-.384v-2.435c0-.648-.084-1.343-.768-1.343-.276 0-.6 0-1.02.324.096.288.096.444.096.804v2.65c0 .216-.18.384-.396.384s-.384-.168-.384-.384v-2.435c0-.648-.145-1.343-.828-1.343-.84 0-1.03.312-1.03 1.007v2.772c0 .216-.18.384-.397.384s-.385-.168-.385-.384v-4.03zM100.317 38.616c-1.235 0-2.1-.444-2.1-1.787v-.997c0-1.535.35-2.135 1.956-2.135 1.667 0 1.906.636 1.906 1.895v.504c0 .216-.18.384-.397.384h-2.687v.42c0 .768.575 1.02 1.308 1.02.36 0 .983-.024 1.38-.12.155.036.25.192.25.348 0 .192-.12.336-.323.36-.418.072-.957.108-1.293.108zm-1.32-2.83h2.304v-.42c0-.576-.13-.97-1.126-.97-.744 0-1.14.07-1.176 1.39zM104.24 34.13c.337-.432.864-.432 1.344-.432 1.176 0 1.632.78 1.632 1.823v2.65c0 .217-.18.385-.396.385s-.384-.168-.384-.384v-2.434c0-.648 0-1.343-1.09-1.343-.925 0-1.225.312-1.225 1.007v2.77c0 .217-.18.385-.395.385s-.384-.168-.384-.384v-4.03c0-.215.17-.383.385-.383s.396.156.396.372h.12zM110.42 38.556c-1.103 0-1.45-.312-1.45-1.45v-2.65h-.624c-.19 0-.348-.17-.348-.35 0-.19.156-.347.348-.347h.624v-1.044c0-.216.168-.384.384-.384s.396.168.396.384v1.043h.852c.192 0 .348.155.348.347 0 .18-.155.348-.348.348h-.852v2.65c0 .528.048.755.66.755h.204c.19 0 .348.156.348.348 0 .18-.156.348-.348.348h-.193z"/>
  </g>
</svg>
