<?xml version="1.0" encoding="utf-8"?>
<!-- Generator: Adobe Illustrator 15.0.2, SVG Export Plug-In . SVG Version: 6.00 Build 0)  -->
<!DOCTYPE svg PUBLIC "-//W3C//DTD SVG 1.1//EN" "http://www.w3.org/Graphics/SVG/1.1/DTD/svg11.dtd">
<svg version="1.1" id="Layer_1" xmlns="http://www.w3.org/2000/svg" xmlns:xlink="http://www.w3.org/1999/xlink" x="0px" y="0px"
	 width="110.961px" height="40.763px" viewBox="0 0 110.961 40.763" enable-background="new 0 0 110.961 40.763"
	 xml:space="preserve">
<g>
	<g>
		<path d="M38.844,23.324c0.121-0.004,0.788,0.038,0.797-0.379c0-0.032-0.008-0.114-0.084-0.19c-0.077-0.086-0.261-0.23-0.402-0.324
			c-1.31-0.86-2.115-3.3-2.328-7.06c-0.205-3.684,0.634-8.836,0.634-8.836c0.032-0.151,0.429-1.806,0.116-1.989
			c-0.416-0.223-0.441-0.359-1.426-0.444c-0.146-0.01-1.068,0.234-1.121,0.346c-0.887,1.55-1.878,5.159-2.833,8.647
			c-0.585,2.132-1.142,4.147-1.66,5.686c-0.781,2.316-1.15,2.467-1.218,2.476c0,0-0.316-0.005-0.604-1.567
			c-0.179-0.967-0.319-2.366-0.433-4.275c-0.084-1.573-0.141-3.301-0.193-4.971c-0.051-1.594-0.096-3.1-0.172-4.417
			c-0.033-0.606-0.826-0.862-1.59-0.868c-1.301-0.012-1.333,0.707-1.333,0.707c-0.004,0.19-0.81,4.948-2.513,9.797
			c-2.146,6.099-4.32,8.244-6.96,8.41c-4.573,0.286-5.979-4.125-5.876-2.321c0.166,2.919,2.557,5.116,5.439,5.006
			c6.649-0.258,8.975-11.576,9.965-16.405c0.014-0.061,0.025-0.118,0.038-0.179c0.027,0.956,0.073,1.918,0.126,2.916
			c0.407,7.104,1.512,10.522,3.397,10.448c0.64-0.027,1.262-0.582,1.751-1.569c1.048-2.099,2.133-6.022,2.846-8.621
			c0.151-0.543,0.288-1.034,0.406-1.443c-0.024,0.851-0.033,1.728,0.021,2.638c0.094,1.713,0.374,3.289,0.867,4.957
			C35.319,22.272,37.94,23.359,38.844,23.324z"/>
	</g>
	<g>
		<path d="M38.415,10.671c0.483,0.225,0.379,0.891,0.327,1.543c-0.436,5.198,0.627,9.166,2.884,9.166
			c1.167,0,2.188-0.958,2.817-1.748c-0.021,0.165-0.04,0.337-0.066,0.518c-0.327,2.598-0.872,4.417-3.16,5.943
			c-0.728,0.459-1.563,0.693-2.414,0.668c-1.621-0.046-3.108-0.839-3.752-2.226c-0.106-0.346-0.242-0.495-0.389-0.524
			c-0.705-0.138-0.566,0.866-0.566,0.866c0.534,2.221,2.924,3.28,5.055,3.345c1.222,0.033,2.426-0.257,3.303-0.806
			c3.388-2.151,4.41-5.689,4.625-10.049c0.123-2.163,0.257-3.329,0.494-4.423c0.015-0.062,0.113-0.352,0.6-0.213
			c1.206,0.345,2.866,0.755,3.368,0.892c-0.112,2.617-0.274,5.001-0.494,7.108l-0.002,0.021c-0.009,0.374,1.011,2.151,1.89,2.177
			c0.157,0.004,0.296-0.045,0.426-0.145l0.07-0.069l0.006-0.095c0.099-3.408,0.229-6.189,0.398-8.485
			c0.914,0.164,1.889,0.263,2.893,0.294c6.879,0.196,10.061-3.142,10.161-6.542c0.104-3.674-3.416-7.687-10.158-7.879
			c-6.342-0.186-11.364,3.182-11.453,6.199c-0.03,1.02,0.541,3.412,6.397,3.82c-0.034,1.138-0.059,1.852-0.093,2.528
			c-0.492-0.095-4.171-0.975-5.194-1.381c-1.302-0.515-1.298,0.55-1.308,0.728c-0.047,1.747-0.204,2.9-0.502,5.137
			c-0.244,1.832-1.853,2.931-2.365,2.952c-0.913,0.043-1.271-2.041-0.746-6.108c0.388-3.017,0.608-4.375-0.469-4.429
			C40.997,9.453,39.465,9.462,38.415,10.671z M55.824,13.046c-0.44-0.015-1.118-0.052-1.913-0.148
			c0.057-0.799,0.127-1.524,0.182-2.17c0.02-0.256,0.047-0.504,0.068-0.746c0.495-0.05,1.167-0.213,1.654-0.384
			c0.485-0.172,0.755-0.229,1.022-0.373c0.273-0.143,0.332-0.505-0.008-0.451c-0.342,0.055-1.221,0.277-1.221,0.277
			s-0.576,0.128-1.367,0.181c0.21-1.936,0.414-3.162,0.535-3.908c0.077-0.481,0.127-0.771,0.134-0.965
			c0.002-0.22-0.255-0.329-0.446-0.334l0,0c-0.079,0.002-1.914,0.038-2.195,0.056c-0.257,0.032-0.422,0.206-0.435,0.472
			c-0.032,0.163-0.043,0.467-0.058,1.011c-0.009,0.361-0.016,0.809-0.031,1.324c-0.01,0.654-0.023,1.385-0.049,2.197
			c-2.535-0.379-4.068-1.469-4.029-2.88c0.06-2.052,3.404-4.082,8.892-3.925c4.431,0.127,6.733,3.109,6.651,5.85
			C63.141,10.492,61.168,13.197,55.824,13.046z"/>
	</g>
	<g>
		<path d="M91.407,16.873c-0.192-0.011-0.354,0.102-0.398,0.138l-0.038,0.025l-0.021,0.037c-1.229,2.101-3.5,5.659-8.162,5.597
			c-1.245-0.015-2.013-0.966-2.348-2.756C83.238,15.6,84.679,9.32,84.819,6.902c0.187-3.082-0.829-3.786-1.719-3.834
			c-2.304-0.123-4.187,7.54-4.526,13.089c-0.085,1.37-0.125,2.957,0.208,4.387c-1.03,1.25-2.585,2.141-3.649,2.084
			c-1.335-0.073-1.758-1.111-1.828-2.36c2.893-1.489,4.114-3.217,4.216-4.862c0.086-1.376-0.683-2.348-1.909-2.413
			c-2.479-0.131-4.572,2.113-4.432,6.828c0,0-1.771,1.459-2.749,1.407c-0.107-0.005-0.683-0.178-1.183-2.952
			c1.824-2.114,3.452-3.675,4.067-4.264c0.371-0.35,3.395-3.251,3.402-3.342c0-0.021,0.018-0.082,0.03-0.131
			c0.031-0.109,0.072-0.243,0.079-0.373c0.028-0.47-0.347-0.526-0.461-0.533c-0.202-0.013-3.377,2.996-3.405,3.015l-0.01,0.008
			l-0.008,0.011c-1.688,1.642-3.009,3.014-3.936,3.994c-0.129-0.97-0.139-1.206-0.211-2.096c-0.032-0.518-0.459-0.876-1.088-0.911
			c-0.66-0.034-1.412,0.287-2.02,0.853l-0.165,0.153l0.158,0.157c0.28,0.278,0.921,3.455,1.11,4.238
			c-2.378,2.358-3.354,2.304-3.769,2.284H61c-0.208-0.015-0.391-0.123-0.347-0.854c0.119-1.927,0.226-2.053,0.478-3.118
			c0.105-0.433,0.238-0.893,0.377-1.402l0.006-0.021v-0.021c0.008-0.165-0.129-0.422-0.545-0.442l-0.025-0.004l-0.03,0.006
			c-0.667,0.092-1.082,0.097-1.538,0.073c-0.296-0.016-0.503,0.221-0.586,0.431l-0.002,0.016c-0.193,0.875-0.347,1.106-0.46,2.926
			c-0.191,3.175,0.939,3.905,1.921,3.958c1.208,0.065,2.521-0.35,4.906-2.536c0.631,1.854,1.518,3.019,2.663,2.851
			c0.938-0.138,3.025-1.282,3.811-1.979c0.737,2.004,1.974,2.451,3.015,2.507c1.515,0.079,3.205-0.718,4.5-2.1
			c0.808,1.872,2.402,2.885,4.75,3.011c4.239,0.229,7.631-2.605,7.979-6.431C91.979,17.043,91.523,16.878,91.407,16.873z
			 M80.291,16.55c0.286-4.688,2.033-10.022,2.59-10.718c0.097,0.112,0.255,0.521,0.186,1.691c-0.123,1.971-0.965,6.948-2.806,10.663
			C80.248,17.688,80.256,17.145,80.291,16.55z M75.424,14.785c0.197,0.011,0.32,0.328,0.296,0.758
			c-0.055,0.873-0.766,2.672-2.354,3.257C73.621,16.813,74.587,14.74,75.424,14.785z"/>
	</g>
</g>
<g>
	<path fill="#8A8C8E" d="M2.494,37.944c-0.096,0.348-0.407,0.612-0.791,0.612c-0.36,0-0.756-0.216-0.804-0.528L0,32.907
		c0.023-0.192,0.191-0.348,0.396-0.348c0.216,0,0.36,0.192,0.384,0.396l0.863,4.93l1.176-3.371c0.096-0.288,0.336-0.516,0.684-0.516
		s0.588,0.228,0.684,0.516l1.176,3.371l0.863-4.93c0.023-0.204,0.168-0.396,0.384-0.396c0.204,0,0.372,0.156,0.396,0.348
		l-0.899,5.121c-0.048,0.312-0.443,0.528-0.804,0.528c-0.384,0-0.695-0.264-0.791-0.612l-1.008-2.89L2.494,37.944z"/>
	<path fill="#8A8C8E" d="M9.767,38.616c-1.235,0-2.099-0.444-2.099-1.787v-0.996c0-1.535,0.348-2.135,1.955-2.135
		c1.667,0,1.906,0.636,1.906,1.895v0.504c0,0.216-0.18,0.384-0.396,0.384H8.447v0.419c0,0.768,0.575,1.02,1.308,1.02
		c0.359,0,0.983-0.024,1.379-0.12c0.156,0.036,0.252,0.192,0.252,0.348c0,0.192-0.12,0.336-0.324,0.36
		C10.642,38.58,10.103,38.616,9.767,38.616z M8.447,35.786h2.303v-0.42c0-0.576-0.132-0.971-1.127-0.971
		C8.879,34.395,8.483,34.466,8.447,35.786z"/>
	<path fill="#8A8C8E" d="M12.792,32.512c0-0.216,0.168-0.384,0.384-0.384s0.396,0.167,0.396,0.384v1.619h0.108
		c0.287-0.432,0.983-0.432,1.151-0.432c1.822,0,1.822,0.852,1.822,1.931v1.055c0,1.08-0.048,1.931-1.931,1.931
		c-0.396,0-0.815-0.072-1.151-0.432c0,0.216-0.18,0.372-0.396,0.372s-0.384-0.168-0.384-0.384V32.512z M15.874,35.642
		c0-0.54,0-1.247-1.02-1.247c-1.007,0-1.283,0.54-1.283,1.043v1.235c0,0.54,0,1.247,1.151,1.247s1.151-0.708,1.151-1.247V35.642z"/>
	<path fill="#8A8C8E" d="M20.136,32.943c0-0.216,0.18-0.384,0.396-0.384h1.631c1.535,0,2.555,0.552,2.555,2.219v1.559
		c0,1.667-1.02,2.219-2.555,2.219h-1.631c-0.216,0-0.396-0.168-0.396-0.384V32.943z M20.915,33.255v4.605h1.271
		c0.899,0,1.751-0.479,1.751-1.439v-1.727c0-0.959-0.852-1.439-1.751-1.439H20.915z"/>
	<path fill="#8A8C8E" d="M27.898,38.616c-1.235,0-2.099-0.444-2.099-1.787v-0.996c0-1.535,0.348-2.135,1.954-2.135
		c1.668,0,1.907,0.636,1.907,1.895v0.504c0,0.216-0.18,0.384-0.396,0.384h-2.687v0.419c0,0.768,0.575,1.02,1.308,1.02
		c0.359,0,0.983-0.024,1.379-0.12c0.156,0.036,0.252,0.192,0.252,0.348c0,0.192-0.12,0.336-0.324,0.36
		C28.773,38.58,28.234,38.616,27.898,38.616z M26.579,35.786h2.303v-0.42c0-0.576-0.132-0.971-1.128-0.971
		C27.011,34.395,26.615,34.466,26.579,35.786z"/>
	<path fill="#8A8C8E" d="M30.743,38.101c0-0.192,0.144-0.372,0.359-0.372c0.396,0.12,1.02,0.192,1.344,0.192
		c0.839,0,0.995-0.24,0.995-0.744c0-0.936-2.818-0.563-2.818-2.159c0-0.996,0.72-1.319,1.847-1.319c0.36,0,0.876,0.036,1.271,0.12
		c0.156,0.036,0.252,0.18,0.252,0.336c0,0.192-0.132,0.348-0.324,0.348c-0.3-0.06-0.779-0.108-1.175-0.108
		c-0.852,0-1.092,0.192-1.092,0.624c0,0.972,2.818,0.516,2.818,2.159c0,1.056-0.479,1.439-1.774,1.439
		c-0.384,0-0.936-0.048-1.355-0.144C30.851,38.424,30.743,38.28,30.743,38.101z"/>
	<path fill="#8A8C8E" d="M35.423,32.439c0-0.216,0.168-0.384,0.384-0.384s0.396,0.168,0.396,0.384v0.24
		c0,0.216-0.18,0.384-0.396,0.384s-0.384-0.167-0.384-0.384V32.439z M35.423,34.143c0-0.216,0.168-0.384,0.384-0.384
		s0.396,0.168,0.396,0.384v4.03c0,0.216-0.18,0.384-0.396,0.384s-0.384-0.168-0.384-0.384V34.143z"/>
	<path fill="#8A8C8E" d="M37.703,40.307c0-0.192,0.156-0.348,0.348-0.348c0.384,0.084,0.9,0.108,1.235,0.108
		c0.732,0,1.26-0.252,1.26-1.02v-0.863c-0.336,0.359-0.756,0.432-1.151,0.432c-1.883,0-1.931-0.852-1.931-1.931V35.63
		c0-1.08,0-1.931,1.822-1.931c0.168,0,0.864,0,1.151,0.432h0.108c0-0.216,0.168-0.372,0.384-0.372s0.396,0.168,0.396,0.384v4.833
		c0,1.343-0.815,1.787-2.051,1.787c-0.323,0-0.815-0.036-1.224-0.108C37.859,40.631,37.703,40.487,37.703,40.307z M40.546,35.438
		c0-0.504-0.276-1.043-1.283-1.043c-1.02,0-1.02,0.708-1.02,1.247v1.032c0,0.54,0,1.247,1.151,1.247s1.151-0.708,1.151-1.247V35.438
		z"/>
	<path fill="#8A8C8E" d="M43.666,34.13c0.336-0.432,0.863-0.432,1.343-0.432c1.176,0,1.632,0.78,1.632,1.823v2.65
		c0,0.216-0.18,0.384-0.396,0.384c-0.216,0-0.384-0.168-0.384-0.384v-2.435c0-0.648,0-1.343-1.091-1.343
		c-0.924,0-1.224,0.312-1.224,1.007v2.771c0,0.216-0.18,0.384-0.396,0.384s-0.384-0.168-0.384-0.384c0-1.355,0-4.066,0-4.03
		c0-0.216,0.168-0.384,0.384-0.384s0.396,0.156,0.396,0.372H43.666z"/>
	<path fill="#8A8C8E" d="M54.812,37.896c0.061,0.06,0.097,0.156,0.097,0.24c0,0.18-0.156,0.336-0.336,0.336
		c-0.084,0-0.18-0.036-0.24-0.096l-0.228-0.228c-0.516,0.372-1.151,0.468-1.655,0.468c-1.163,0-2.267,0-2.267-1.655
		c0-0.839,0.684-1.188,1.415-1.475c-0.252-0.42-0.408-0.864-0.408-1.319c0-0.971,0.229-1.667,1.452-1.667
		c1.223,0,1.451,0.696,1.451,1.667c0,0.852-0.708,1.271-1.464,1.607c0.276,0.336,0.588,0.636,1.38,1.379
		c0.132-0.24,0.228-0.552,0.264-0.947c0-0.216,0.168-0.384,0.384-0.384s0.396,0.168,0.396,0.384
		c-0.048,0.647-0.228,1.115-0.468,1.475L54.812,37.896z M53.564,37.645c-0.539-0.492-1.127-1.031-1.571-1.595
		c-0.575,0.252-1.031,0.492-1.031,0.912c0,0.959,0.432,0.959,1.476,0.959C52.821,37.92,53.229,37.86,53.564,37.645z M52.258,35.234
		c0.587-0.228,1.055-0.503,1.055-1.067c0-0.66,0-0.971-0.671-0.971c-0.66,0-0.672,0.312-0.672,0.971
		C51.97,34.55,52.077,34.898,52.258,35.234z"/>
	<path fill="#00AEEF" d="M58.715,32.943c0-0.216,0.18-0.384,0.396-0.384h1.631c1.535,0,2.555,0.552,2.555,2.219v1.559
		c0,1.667-1.02,2.219-2.555,2.219H59.11c-0.216,0-0.396-0.168-0.396-0.384V32.943z M59.494,33.255v4.605h1.271
		c0.899,0,1.751-0.479,1.751-1.439v-1.727c0-0.959-0.852-1.439-1.751-1.439H59.494z"/>
	<path fill="#00AEEF" d="M66.478,38.616c-1.235,0-2.099-0.444-2.099-1.787v-0.996c0-1.535,0.348-2.135,1.955-2.135
		c1.667,0,1.906,0.636,1.906,1.895v0.504c0,0.216-0.18,0.384-0.396,0.384h-2.687v0.419c0,0.768,0.575,1.02,1.308,1.02
		c0.359,0,0.983-0.024,1.379-0.12c0.156,0.036,0.252,0.192,0.252,0.348c0,0.192-0.12,0.336-0.324,0.36
		C67.353,38.58,66.813,38.616,66.478,38.616z M65.158,35.786h2.303v-0.42c0-0.576-0.132-0.971-1.127-0.971
		C65.59,34.395,65.194,34.466,65.158,35.786z"/>
	<path fill="#00AEEF" d="M68.903,34.143c0-0.216,0.191-0.384,0.407-0.384c0.168,0,0.313,0.108,0.372,0.264l1.355,3.922l1.355-3.922
		c0.06-0.156,0.203-0.264,0.371-0.264c0.216,0,0.408,0.168,0.408,0.384l-1.355,3.862c-0.107,0.312-0.432,0.552-0.791,0.552
		c-0.349,0-0.66-0.228-0.768-0.552L68.903,34.143z"/>
	<path fill="#00AEEF" d="M75.934,38.616c-1.235,0-2.099-0.444-2.099-1.787v-0.996c0-1.535,0.348-2.135,1.954-2.135
		c1.668,0,1.907,0.636,1.907,1.895v0.504c0,0.216-0.18,0.384-0.396,0.384h-2.687v0.419c0,0.768,0.575,1.02,1.308,1.02
		c0.359,0,0.983-0.024,1.379-0.12c0.156,0.036,0.252,0.192,0.252,0.348c0,0.192-0.12,0.336-0.324,0.36
		C76.809,38.58,76.27,38.616,75.934,38.616z M74.614,35.786h2.303v-0.42c0-0.576-0.132-0.971-1.128-0.971
		C75.046,34.395,74.65,34.466,74.614,35.786z"/>
	<path fill="#00AEEF" d="M78.958,32.512c0-0.216,0.168-0.384,0.384-0.384s0.396,0.167,0.396,0.384v5.661
		c0,0.216-0.18,0.384-0.396,0.384s-0.384-0.168-0.384-0.384V32.512z"/>
	<path fill="#00AEEF" d="M84.86,35.63v1.055c0,1.08-0.048,1.931-1.931,1.931s-1.931-0.852-1.931-1.931V35.63
		c0-1.08,0.048-1.931,1.931-1.931S84.86,34.55,84.86,35.63z M84.081,35.642c0-0.54,0-1.247-1.151-1.247s-1.151,0.708-1.151,1.247
		v1.032c0,0.54,0,1.247,1.151,1.247s1.151-0.708,1.151-1.247V35.642z"/>
	<path fill="#00AEEF" d="M89.983,35.63v1.055c0,1.08-0.048,1.931-1.931,1.931c-0.396,0-0.815-0.072-1.151-0.432v2.194
		c0,0.216-0.18,0.384-0.396,0.384s-0.384-0.167-0.384-0.384v-6.236c0-0.216,0.168-0.384,0.384-0.384s0.396,0.168,0.396,0.372h0.108
		c0.287-0.432,0.983-0.432,1.151-0.432C89.983,33.699,89.983,34.55,89.983,35.63z M89.204,35.642c0-0.54,0-1.247-1.02-1.247
		c-1.007,0-1.283,0.54-1.283,1.043v1.235c0,0.54,0,1.247,1.151,1.247s1.151-0.708,1.151-1.247V35.642z"/>
	<path fill="#00AEEF" d="M91.246,34.143c0-0.216,0.168-0.384,0.384-0.384s0.396,0.156,0.396,0.372h0.12
		c0.336-0.432,0.815-0.432,0.972-0.432c0.527,0,1.007,0.156,1.223,0.432c0.336-0.432,1.151-0.432,1.308-0.432
		c1.176,0,1.487,0.78,1.487,1.823v2.65c0,0.216-0.18,0.384-0.396,0.384s-0.384-0.168-0.384-0.384v-2.435
		c0-0.648-0.084-1.343-0.768-1.343c-0.276,0-0.6,0-1.02,0.324c0.096,0.288,0.096,0.444,0.096,0.804v2.65
		c0,0.216-0.18,0.384-0.396,0.384s-0.384-0.168-0.384-0.384v-2.435c0-0.648-0.145-1.343-0.828-1.343
		c-0.839,0-1.031,0.312-1.031,1.007v2.771c0,0.216-0.18,0.384-0.396,0.384s-0.384-0.168-0.384-0.384V34.143z"/>
	<path fill="#00AEEF" d="M100.317,38.616c-1.235,0-2.099-0.444-2.099-1.787v-0.996c0-1.535,0.348-2.135,1.955-2.135
		c1.667,0,1.906,0.636,1.906,1.895v0.504c0,0.216-0.18,0.384-0.396,0.384h-2.687v0.419c0,0.768,0.575,1.02,1.308,1.02
		c0.359,0,0.983-0.024,1.379-0.12c0.156,0.036,0.252,0.192,0.252,0.348c0,0.192-0.12,0.336-0.324,0.36
		C101.192,38.58,100.653,38.616,100.317,38.616z M98.998,35.786h2.303v-0.42c0-0.576-0.132-0.971-1.127-0.971
		C99.43,34.395,99.034,34.466,98.998,35.786z"/>
	<path fill="#00AEEF" d="M104.241,34.13c0.336-0.432,0.863-0.432,1.343-0.432c1.176,0,1.632,0.78,1.632,1.823v2.65
		c0,0.216-0.181,0.384-0.396,0.384s-0.384-0.168-0.384-0.384v-2.435c0-0.648,0-1.343-1.091-1.343c-0.924,0-1.224,0.312-1.224,1.007
		v2.771c0,0.216-0.18,0.384-0.396,0.384s-0.384-0.168-0.384-0.384c0-1.355,0-4.066,0-4.03c0-0.216,0.168-0.384,0.384-0.384
		s0.396,0.156,0.396,0.372H104.241z"/>
	<path fill="#00AEEF" d="M110.421,38.556c-1.104,0-1.451-0.312-1.451-1.451v-2.65h-0.624c-0.191,0-0.348-0.168-0.348-0.348
		c0-0.192,0.156-0.348,0.348-0.348h0.624v-1.043c0-0.216,0.168-0.384,0.384-0.384s0.396,0.168,0.396,0.384v1.043h0.852
		c0.192,0,0.348,0.156,0.348,0.348c0,0.18-0.155,0.348-0.348,0.348h-0.852v2.65c0,0.528,0.048,0.755,0.66,0.755h0.204
		c0.191,0,0.348,0.156,0.348,0.348c0,0.18-0.156,0.348-0.348,0.348H110.421z"/>
</g>
</svg>
